<?xml version="1.0" encoding="UTF-8"?>
<svg version="1.1" xmlns="http://www.w3.org/2000/svg" width="400" height="400">
<path d="M0 0 C1.23391228 -0.01058945 1.23391228 -0.01058945 2.49275208 -0.02139282 C36.44592663 -0.24667095 36.44592663 -0.24667095 51.171875 3.203125 C52.06503418 3.40180176 52.95819336 3.60047852 53.87841797 3.80517578 C80.05158526 9.7223948 105.43787555 20.28134731 127.171875 36.203125 C128.73228516 37.33814453 128.73228516 37.33814453 130.32421875 38.49609375 C137.93010108 44.13609215 144.93699192 50.32606186 151.77490234 56.86914062 C152.96618746 58.00671173 154.17117264 59.12990724 155.37890625 60.25 C187.35060068 90.72403868 210.20998236 140.36129218 211.33300781 184.46582031 C211.35254956 185.98756911 211.36630412 187.50940058 211.375 189.03125 C211.38205963 189.85385818 211.38911926 190.67646637 211.39639282 191.52400208 C211.62167095 225.47717663 211.62167095 225.47717663 208.171875 240.203125 C207.87385986 241.54286377 207.87385986 241.54286377 207.56982422 242.90966797 C201.6526052 269.08283526 191.09365269 294.46912555 175.171875 316.203125 C174.41519531 317.24339844 173.65851563 318.28367187 172.87890625 319.35546875 C167.23890785 326.96135108 161.04893814 333.96824192 154.50585938 340.80615234 C153.36828827 341.99743746 152.24509276 343.20242264 151.125 344.41015625 C120.65096132 376.38185068 71.01370782 399.24123236 26.90917969 400.36425781 C25.38743089 400.38379956 23.86559942 400.39755412 22.34375 400.40625 C21.10983772 400.41683945 21.10983772 400.41683945 19.85099792 400.42764282 C-14.10217663 400.65292095 -14.10217663 400.65292095 -28.828125 397.203125 C-30.16786377 396.90510986 -30.16786377 396.90510986 -31.53466797 396.60107422 C-57.70783526 390.6838552 -83.09412555 380.12490269 -104.828125 364.203125 C-105.86839844 363.44644531 -106.90867187 362.68976563 -107.98046875 361.91015625 C-115.58635108 356.27015785 -122.59324192 350.08018814 -129.43115234 343.53710938 C-130.62243746 342.39953827 -131.82742264 341.27634276 -133.03515625 340.15625 C-165.00685068 309.68221132 -187.86623236 260.04495782 -188.98925781 215.94042969 C-189.00879956 214.41868089 -189.02255412 212.89684942 -189.03125 211.375 C-189.03830963 210.55239182 -189.04536926 209.72978363 -189.05264282 208.88224792 C-189.27792095 174.92907337 -189.27792095 174.92907337 -185.828125 160.203125 C-185.62944824 159.30996582 -185.43077148 158.41680664 -185.22607422 157.49658203 C-179.3088552 131.32341474 -168.74990269 105.93712445 -152.828125 84.203125 C-152.07144531 83.16285156 -151.31476563 82.12257813 -150.53515625 81.05078125 C-144.89515785 73.44489892 -138.70518814 66.43800808 -132.16210938 59.60009766 C-131.02453827 58.40881254 -129.90134276 57.20382736 -128.78125 55.99609375 C-97.01652998 22.67028706 -45.85508406 0.26201706 0 0 Z " fill="#000000" transform="translate(188.828125,-0.203125)"/>
<path d="M0 0 C1.87083213 0.00327334 3.74167863 0.00163559 5.61250305 -0.00465393 C9.51669935 -0.00273983 13.41635613 0.04681335 17.31958008 0.13305664 C22.30763441 0.24104923 27.28934934 0.24675418 32.27829266 0.21904087 C36.13514114 0.20591132 39.99056568 0.23804159 43.84711647 0.28455925 C45.68533129 0.30304854 47.52370607 0.30974497 49.36200523 0.30410957 C63.6341286 0.30793652 63.6341286 0.30793652 68.47537231 3.67295837 C70.4932562 5.91680285 72.0629112 8.10305378 73.61328125 10.68359375 C74.44859375 11.67230469 75.28390625 12.66101563 76.14453125 13.6796875 C77.1190625 14.88818359 77.1190625 14.88818359 78.11328125 16.12109375 C79.11875 17.35666016 79.11875 17.35666016 80.14453125 18.6171875 C81.61328125 20.68359375 81.61328125 20.68359375 81.61328125 22.68359375 C73.69328125 23.67359375 65.77328125 24.66359375 57.61328125 25.68359375 C61.31160156 25.53277344 65.00992188 25.38195312 68.8203125 25.2265625 C72.43108651 25.12497048 76.04169716 25.04615964 79.65307617 24.96948242 C82.14925204 24.90438446 84.64493742 24.81587065 87.1394043 24.70288086 C109.01052606 23.73752877 109.01052606 23.73752877 114.578125 28.39575195 C117.50717116 31.51180505 119.54228326 34.95668229 121.61328125 38.68359375 C122.59129258 39.96343682 123.59279759 41.22644938 124.63671875 42.453125 C125.41273438 43.45730469 126.18875 44.46148437 126.98828125 45.49609375 C131.59283273 51.41925209 136.27154799 57.27866838 141.0690918 63.04711914 C143.97140435 66.55449373 146.43835136 70.03462409 148.80078125 73.93359375 C153.31600991 79.8824075 161.50074835 80.06347631 168.39990234 81.25537109 C173.88368774 82.31631965 180.58407241 83.65438491 184.61328125 87.68359375 C183.80552246 87.57869629 183.80552246 87.57869629 182.98144531 87.47167969 C176.81308955 86.67534982 170.6411137 85.91135866 164.46728516 85.15869141 C161.20912542 84.75704572 157.95297781 84.34199117 154.69691467 83.92379761 C71.40257251 73.32212199 -22.93030422 71.56081536 -105.77856445 86.4140625 C-108.32091472 86.67679345 -109.98312418 86.4870475 -112.38671875 85.68359375 C-107.16606425 83.38503861 -102.1649653 81.68249419 -96.47265625 81.125 C-87.02507478 80.09633839 -80.49472467 78.97803969 -74.07348633 71.52612305 C-71.83296962 68.62924152 -69.68939635 65.6963707 -67.67919922 62.63476562 C-66.38671875 60.68359375 -66.38671875 60.68359375 -64.75512695 59.00683594 C-62.60436366 55.35533487 -62.90615166 51.70781596 -62.875 47.54296875 C-62.8570488 46.66078674 -62.8390976 45.77860474 -62.82060242 44.86968994 C-62.76650904 42.0577062 -62.73260699 39.2458921 -62.69921875 36.43359375 C-62.6660448 34.52471598 -62.63155507 32.6158606 -62.59570312 30.70703125 C-62.51078314 26.0326745 -62.44396734 21.35836799 -62.38671875 16.68359375 C-63.04671875 16.68359375 -63.70671875 16.68359375 -64.38671875 16.68359375 C-64.38671875 14.70359375 -64.38671875 12.72359375 -64.38671875 10.68359375 C-57.12671875 10.68359375 -49.86671875 10.68359375 -42.38671875 10.68359375 C-42.38671875 12.66359375 -42.38671875 14.64359375 -42.38671875 16.68359375 C-43.04671875 16.68359375 -43.70671875 16.68359375 -44.38671875 16.68359375 C-43.89171875 24.10859375 -43.89171875 24.10859375 -43.38671875 31.68359375 C-41.44765404 29.30985793 -39.51047949 26.93461541 -37.57421875 24.55859375 C-37.04634766 23.91277344 -36.51847656 23.26695312 -35.97460938 22.6015625 C-35.14799805 21.58642578 -35.14799805 21.58642578 -34.3046875 20.55078125 C-33.71727783 19.8538768 -33.12986816 19.15697235 -32.5246582 18.43894958 C-30.91850445 16.36895406 -29.60856703 14.43701664 -28.27941895 12.20497131 C-20.77988384 0.2823806 -13.42413157 -0.35308399 0 0 Z " fill="#FBFBFB" transform="translate(166.38671875,111.31640625)"/>
<path d="M0 0 C0.66 0 1.32 0 2 0 C3.68467264 1.9639171 5.25509766 3.93808704 6.8125 6 C7.8072784 7.29267996 8.80342705 8.58430633 9.80078125 9.875 C10.32365723 10.55304688 10.8465332 11.23109375 11.38525391 11.9296875 C14.03712124 15.32972303 16.76932219 18.66318246 19.5 22 C24.00149422 27.51424773 28.43956453 33.071247 32.81396484 38.68676758 C35.35011241 41.93234977 37.92409955 45.14167239 40.5390625 48.32421875 C41.13525391 49.05060547 41.73144531 49.77699219 42.34570312 50.52539062 C43.50985061 51.94000233 44.67768088 53.35159333 45.84960938 54.75976562 C46.37619141 55.39978516 46.90277344 56.03980469 47.4453125 56.69921875 C47.91469238 57.26471436 48.38407227 57.83020996 48.86767578 58.4128418 C50 60 50 60 51 63 C50.42546585 63.00808685 49.8509317 63.01617371 49.25898743 63.02450562 C3.75835094 63.53568727 3.75835094 63.53568727 -41.55493164 67.39038086 C-45.39752786 67.87028251 -49.12784623 68.08378694 -53 68 C-51.32198127 64.13774461 -48.79660053 61.01321305 -46.1875 57.75 C-45.46433594 56.83734375 -45.46433594 56.83734375 -44.7265625 55.90625 C-40.47486077 50.55628261 -36.15881328 45.25856029 -31.83862305 39.96386719 C-27.89483137 35.12378573 -24.02316465 30.23245427 -20.18164062 25.31103516 C-15.9670236 19.92586209 -11.6550051 14.62172735 -7.32617188 9.328125 C-6.80603516 8.69132813 -6.28589844 8.05453125 -5.75 7.3984375 C-5.2653125 6.80643555 -4.780625 6.21443359 -4.28125 5.60449219 C-3.22646038 4.2835933 -2.22961036 2.91663956 -1.25 1.5390625 C-0.63125 0.77722656 -0.63125 0.77722656 0 0 Z " fill="#050505" transform="translate(149,120)"/>
<path d="M0 0 C4.21847302 4.05257801 7.92886011 8.40778653 11.625 12.9375 C12.23601562 13.68314209 12.84703125 14.42878418 13.4765625 15.19702148 C36 42.76770325 36 42.76770325 36 45 C28.52788293 45.21563199 21.23442043 44.36827649 13.8125 43.5625 C3.76628237 42.49939682 -6.25109913 41.63271144 -16.35229492 41.29125977 C-21.29317192 41.12074172 -26.10149078 40.68065846 -31 40 C-28.4734439 35.42938984 -25.31625715 31.56748472 -22 27.5625 C-20.83369333 26.14139765 -19.66834668 24.71950693 -18.50390625 23.296875 C-17.62629639 22.22469727 -17.62629639 22.22469727 -16.73095703 21.13085938 C-13.20935555 16.79566364 -9.77836177 12.38939831 -6.33984375 7.98828125 C-4.24373944 5.3112866 -2.12933061 2.65059861 0 0 Z " fill="#080808" transform="translate(273,143)"/>
<path d="M0 0 C4.4331235 2.13739883 7.12530646 4.4174158 9 9 C9.54067915 13.86611237 9.54236245 15.97338536 7.25 20.3125 C4.31619937 23.81676186 2.58314429 25.79376664 -2.05859375 26.3984375 C-3.17363281 26.39070313 -4.28867188 26.38296875 -5.4375 26.375 C-6.54996094 26.38273437 -7.66242188 26.39046875 -8.80859375 26.3984375 C-12.32048343 25.95998861 -14.18167933 25.10374646 -17 23 C-20.03217022 18.50402346 -20.95138112 14.29602155 -20 9 C-15.51271065 0.19161721 -9.32908442 -1.23291865 0 0 Z " fill="#080808" transform="translate(206,216)"/>
<path d="M0 0 C3.63 0 7.26 0 11 0 C10.01 0.495 10.01 0.495 9 1 C9 4.63 9 8.26 9 12 C12.63 12 16.26 12 20 12 C19.87625 10.39125 19.7525 8.7825 19.625 7.125 C19.55539063 6.22007812 19.48578125 5.31515625 19.4140625 4.3828125 C19.20431868 1.82058097 19.20431868 1.82058097 17 0 C20.63 0 24.26 0 28 0 C27.67 0.66 27.34 1.32 27 2 C26.91528636 3.81341842 26.89278917 5.62994161 26.90234375 7.4453125 C26.90717773 9.05986328 26.90717773 9.05986328 26.91210938 10.70703125 C26.92048828 11.83496094 26.92886719 12.96289062 26.9375 14.125 C26.94201172 15.26066406 26.94652344 16.39632812 26.95117188 17.56640625 C26.96298385 20.37765638 26.97945493 23.1888023 27 26 C24.36 26 21.72 26 19 26 C19.33 22.04 19.66 18.08 20 14 C16.04 14 12.08 14 8 14 C8.144375 15.60875 8.28875 17.2175 8.4375 18.875 C8.51871094 19.77992188 8.59992188 20.68484375 8.68359375 21.6171875 C8.86989285 24.01110861 8.86989285 24.01110861 10 26 C6.7 26 3.4 26 0 26 C0.66 25.34 1.32 24.68 2 24 C2.31051841 21.70609569 2.31051841 21.70609569 2.265625 19.0625 C2.26820312 18.08539063 2.27078125 17.10828125 2.2734375 16.1015625 C2.26570313 15.07804688 2.25796875 14.05453125 2.25 13 C2.25773437 11.97648438 2.26546875 10.95296875 2.2734375 9.8984375 C2.26957031 8.43277344 2.26957031 8.43277344 2.265625 6.9375 C2.26336914 6.03902344 2.26111328 5.14054688 2.25878906 4.21484375 C2.20808942 1.79457835 2.20808942 1.79457835 0 0 Z " fill="#DDDDDD" transform="translate(70,216)"/>
<path d="M0 0 C3.32859708 3.04875927 5.50435293 6.21910958 7.75 10.125 C8.67039063 11.70667969 8.67039063 11.70667969 9.609375 13.3203125 C11 16 11 16 11 18 C11.66 18 12.32 18 13 18 C13.25523437 17.31550781 13.51046875 16.63101563 13.7734375 15.92578125 C15.18849108 12.55038274 16.87258566 9.40025962 18.625 6.1875 C19.11226562 5.2912793 19.11226562 5.2912793 19.609375 4.37695312 C20.40379151 2.91662865 21.20155376 1.45812509 22 0 C22.66 0 23.32 0 24 0 C24.08564209 0.71655762 24.17128418 1.43311523 24.25952148 2.17138672 C24.6483426 5.40639937 25.04284855 8.64069367 25.4375 11.875 C25.57220703 13.00292969 25.70691406 14.13085938 25.84570312 15.29296875 C26.04389648 16.90751953 26.04389648 16.90751953 26.24609375 18.5546875 C26.36654053 19.54968262 26.4869873 20.54467773 26.61108398 21.56982422 C26.87545305 24.00111629 26.87545305 24.00111629 28 26 C25.03 26 22.06 26 19 26 C19.01160156 25.30132812 19.02320313 24.60265625 19.03515625 23.8828125 C19.04417969 22.97273438 19.05320313 22.06265625 19.0625 21.125 C19.07410156 20.22007812 19.08570313 19.31515625 19.09765625 18.3828125 C19.16249257 15.9831415 19.16249257 15.9831415 18 14 C15.69 17.96 13.38 21.92 11 26 C6.75111049 21.75111049 4.77892128 18.24907352 2 13 C1.67 17.29 1.34 21.58 1 26 C-0.65 26 -2.3 26 -4 26 C-3.87882813 25.46375 -3.75765625 24.9275 -3.6328125 24.375 C-1.90862706 16.31111731 -0.95430063 8.18262027 0 0 Z " fill="#F0F0F0" transform="translate(226,216)"/>
<path d="M0 0 C2.39652528 -0.08139142 4.79025436 -0.14067009 7.1875 -0.1875 C7.86103516 -0.21263672 8.53457031 -0.23777344 9.22851562 -0.26367188 C13.71415591 -0.32931539 16.40396893 0.31144193 20 3 C21 4 21 4 21.3125 7.3125 C20.94889197 11.6030747 20.0856881 12.24296507 17 15 C18.12327771 16.45966034 19.24868294 17.91768364 20.375 19.375 C21.00148437 20.18710938 21.62796875 20.99921875 22.2734375 21.8359375 C23.96773494 24.04223195 23.96773494 24.04223195 26 26 C21.83890892 26.40795011 19.72877094 26.54234116 16.3125 24 C13.63628789 20.52815727 11.77330346 16.99240947 10 13 C11.32 12.34 12.64 11.68 14 11 C14 8.69 14 6.38 14 4 C12.02 3.34 10.04 2.68 8 2 C8.13847638 5.62532066 8.28702643 9.25015904 8.4375 12.875 C8.47681641 13.90753906 8.51613281 14.94007813 8.55664062 16.00390625 C8.61948242 17.48310547 8.61948242 17.48310547 8.68359375 18.9921875 C8.72025146 19.90339355 8.75690918 20.81459961 8.79467773 21.75341797 C8.86577065 24.03483481 8.86577065 24.03483481 10 26 C7.36 26 4.72 26 2 26 C2.01047363 25.28344238 2.02094727 24.56688477 2.03173828 23.82861328 C2.07321299 20.59411095 2.09929892 17.35966447 2.125 14.125 C2.14175781 12.99707031 2.15851563 11.86914062 2.17578125 10.70703125 C2.18222656 9.63066406 2.18867188 8.55429688 2.1953125 7.4453125 C2.20578613 6.45031738 2.21625977 5.45532227 2.22705078 4.43017578 C2.24379401 1.81828583 2.24379401 1.81828583 0 0 Z " fill="#E9E9E9" transform="translate(136,216)"/>
<path d="M0 0 C4.4331235 2.13739883 7.12530646 4.4174158 9 9 C9.54067915 13.86611237 9.54236245 15.97338536 7.25 20.3125 C4.31619937 23.81676186 2.58314429 25.79376664 -2.05859375 26.3984375 C-3.17363281 26.39070313 -4.28867188 26.38296875 -5.4375 26.375 C-6.54996094 26.38273437 -7.66242188 26.39046875 -8.80859375 26.3984375 C-12.32048343 25.95998861 -14.18167933 25.10374646 -17 23 C-20.03217022 18.50402346 -20.95138112 14.29602155 -20 9 C-15.51271065 0.19161721 -9.32908442 -1.23291865 0 0 Z M-11.375 3.875 C-14.76410515 8.30690674 -14.58979841 12.57551599 -14 18 C-12.59503453 21.61114211 -12.59503453 21.61114211 -10 24 C-6.38745469 25.30666532 -4.77918809 25.33646758 -1.25 23.8125 C1.19306271 21.84447726 2.11159826 20.98826041 3 18 C3.36943954 12.18132729 3.07130872 8.1614712 -0.1875 3.1875 C-4.01252184 0.68145121 -7.89316261 1.12618101 -11.375 3.875 Z " fill="#EAEAEA" transform="translate(206,216)"/>
<path d="M0 0 C2.3671875 1.0234375 2.3671875 1.0234375 4 2 C4 3.98 4 5.96 4 8 C3.360625 7.175 2.72125 6.35 2.0625 5.5 C-1.59092868 2.51760924 -3.37498035 2.44133962 -7.9140625 2.43359375 C-10.12680945 2.8578312 -10.12680945 2.8578312 -11.75390625 4.66015625 C-13.32554897 7.61129728 -13.36662754 9.66907475 -13.3125 13 C-13.30863281 14.03125 -13.30476563 15.0625 -13.30078125 16.125 C-13.00233339 18.97769646 -12.65777415 20.67044809 -11 23 C-7.57756686 24.00082535 -7.57756686 24.00082535 -4 24 C-3.01 23.34 -2.02 22.68 -1 22 C-0.63702064 20.02252878 -0.63702064 20.02252878 -0.8125 17.875 C-0.874375 16.59625 -0.93625 15.3175 -1 14 C1.31 14 3.62 14 6 14 C5.98700142 17.1001605 5.78378171 19.99283754 5 23 C0.76219954 26.77965987 -4.69789801 26.55712412 -10.1484375 26.421875 C-14.54463042 25.77147934 -16.11616248 24.33918028 -19 21 C-21.54676486 17.52713882 -21.3628022 14.20850557 -21 10 C-19.70889797 6.34187758 -18.33839007 4.3297134 -15.5625 1.625 C-10.4470774 -0.70835066 -5.54443348 -0.66409649 0 0 Z " fill="#E8E8E8" transform="translate(323,216)"/>
<path d="M0 0 C2.39614126 -0.05425226 4.79103853 -0.09379027 7.1875 -0.125 C8.19780273 -0.15013672 8.19780273 -0.15013672 9.22851562 -0.17578125 C13.27049078 -0.21521515 16.43475461 0.03161955 20 2 C22 5 22 5 21.875 8.5 C21 12 21 12 19.3125 13.9375 C16.40913094 15.27148038 14.15869424 15.21536552 11 15 C10.67 14.34 10.34 13.68 10 13 C10.825 12.649375 11.65 12.29875 12.5 11.9375 C13.7375 10.9784375 13.7375 10.9784375 15 10 C15.41725678 6.37400578 15.41725678 6.37400578 15 3 C12.03 2.505 12.03 2.505 9 2 C9.33 9.92 9.66 17.84 10 26 C7.36 26 4.72 26 2 26 C2.01047363 25.28344238 2.02094727 24.56688477 2.03173828 23.82861328 C2.07321299 20.59411095 2.09929892 17.35966447 2.125 14.125 C2.14175781 12.99707031 2.15851563 11.86914062 2.17578125 10.70703125 C2.18222656 9.63066406 2.18867188 8.55429688 2.1953125 7.4453125 C2.20578613 6.45031738 2.21625977 5.45532227 2.22705078 4.43017578 C2.24379401 1.81828583 2.24379401 1.81828583 0 0 Z " fill="#EFEFEF" transform="translate(274,216)"/>
<path d="M0 0 C0.66 0 1.32 0 2 0 C2.32798584 0.71655762 2.65597168 1.43311523 2.99389648 2.17138672 C4.47473987 5.40608841 5.95611324 8.64054712 7.4375 11.875 C7.95376953 13.00292969 8.47003906 14.13085938 9.00195312 15.29296875 C9.49501953 16.36933594 9.98808594 17.44570312 10.49609375 18.5546875 C10.95169678 19.54968262 11.4072998 20.54467773 11.87670898 21.56982422 C12.56379025 23.0562852 13.26765488 24.53530975 14 26 C10.7 26 7.4 26 4 26 C4 23.69 4 21.38 4 19 C1.03 19 -1.94 19 -5 19 C-5.33 21.31 -5.66 23.62 -6 26 C-7.65 26 -9.3 26 -11 26 C-10.70230713 25.31897217 -10.40461426 24.63794434 -10.09790039 23.9362793 C-8.75142904 20.85393528 -7.40694217 17.7707296 -6.0625 14.6875 C-5.59392578 13.61564453 -5.12535156 12.54378906 -4.64257812 11.43945312 C-4.19462891 10.41142578 -3.74667969 9.38339844 -3.28515625 8.32421875 C-2.66459351 6.9024231 -2.66459351 6.9024231 -2.03149414 5.4519043 C-0.93582167 2.93478202 -0.93582167 2.93478202 0 0 Z " fill="#EEEEEE" transform="translate(116,216)"/>
<path d="M0 0 C3.3 0 6.6 0 10 0 C9.67 0.66 9.34 1.32 9 2 C8.91528636 3.81341842 8.89278917 5.62994161 8.90234375 7.4453125 C8.90556641 8.52167969 8.90878906 9.59804687 8.91210938 10.70703125 C8.92048828 11.83496094 8.92886719 12.96289062 8.9375 14.125 C8.94201172 15.26066406 8.94652344 16.39632812 8.95117188 17.56640625 C8.96298385 20.37765638 8.97945493 23.1888023 9 26 C6.03 26 3.06 26 0 26 C0.66 25.67 1.32 25.34 2 25 C1.86155153 21.20802551 1.71299256 17.4165141 1.5625 13.625 C1.52318359 12.54476562 1.48386719 11.46453125 1.44335938 10.3515625 C1.40146484 9.3203125 1.35957031 8.2890625 1.31640625 7.2265625 C1.27974854 6.27346191 1.24309082 5.32036133 1.20532227 4.33837891 C1.14236535 1.97867651 1.14236535 1.97867651 0 0 Z " fill="#E7E7E7" transform="translate(168,216)"/>
<path d="M0 0 C3.63 0 7.26 0 11 0 C10.34 0.66 9.68 1.32 9 2 C8.70590868 4.29456923 8.70590868 4.29456923 8.76953125 6.9375 C8.77243164 8.40316406 8.77243164 8.40316406 8.77539062 9.8984375 C8.78763672 10.92195312 8.79988281 11.94546875 8.8125 13 C8.81314453 14.02351562 8.81378906 15.04703125 8.81445312 16.1015625 C8.62719937 21.21554855 8.62719937 21.21554855 10 26 C6.7 26 3.4 26 0 26 C0.66 25.34 1.32 24.68 2 24 C2.31051841 21.70609569 2.31051841 21.70609569 2.265625 19.0625 C2.26820312 18.08539063 2.27078125 17.10828125 2.2734375 16.1015625 C2.26570313 15.07804688 2.25796875 14.05453125 2.25 13 C2.25773437 11.97648438 2.26546875 10.95296875 2.2734375 9.8984375 C2.26957031 8.43277344 2.26957031 8.43277344 2.265625 6.9375 C2.26336914 6.03902344 2.26111328 5.14054688 2.25878906 4.21484375 C2.20808942 1.79457835 2.20808942 1.79457835 0 0 Z " fill="#F3F3F3" transform="translate(70,216)"/>
<path d="M0 0 C-0.639375 0.78375 -1.27875 1.5675 -1.9375 2.375 C-5.66550481 7.1197334 -5.49134685 11.11310851 -5 17 C-4.15163476 20.05649286 -4.15163476 20.05649286 -2 22 C1.57996259 23.36900354 1.57996259 23.36900354 5 24 C5 24.33 5 24.66 5 25 C-4.9375 25.58455882 -4.9375 25.58455882 -9 22 C-12.02400282 17.51613375 -12.96866022 13.28551557 -12 8 C-8.99081108 2.3966827 -6.51168071 -0.35198274 0 0 Z " fill="#F3F3F3" transform="translate(198,217)"/>
<path d="M0 0 C3.63 0 7.26 0 11 0 C11 0.33 11 0.66 11 1 C9.02 1 7.04 1 5 1 C5.13847638 4.62532066 5.28702643 8.25015904 5.4375 11.875 C5.47681641 12.90753906 5.51613281 13.94007813 5.55664062 15.00390625 C5.59853516 15.99003906 5.64042969 16.97617188 5.68359375 17.9921875 C5.72025146 18.90339355 5.75690918 19.81459961 5.79467773 20.75341797 C5.86577065 23.03483481 5.86577065 23.03483481 7 25 C4.36 25 1.72 25 -1 25 C-0.67 16.75 -0.34 8.5 0 0 Z " fill="#FEFEFE" transform="translate(139,217)"/>
<path d="M0 0 C3.375 0.875 3.375 0.875 5.375 2.875 C5.7017107 5.94608055 5.85638276 8.02550101 4.3125 10.75 C1.2680714 12.51773274 -1.1881012 12.24323916 -4.625 11.875 C-6.5625 10.6875 -6.5625 10.6875 -7.625 8.875 C-8.21489164 5.58846084 -7.90537501 4.30117001 -6.0625 1.5 C-3.625 -0.125 -3.625 -0.125 0 0 Z " fill="#CFCFCF" transform="translate(267.625,255.125)"/>
<path d="M0 0 C3.375 0.875 3.375 0.875 5.375 2.875 C5.7017107 5.94608055 5.85638276 8.02550101 4.3125 10.75 C1.2680714 12.51773274 -1.1881012 12.24323916 -4.625 11.875 C-6.5625 10.6875 -6.5625 10.6875 -7.625 8.875 C-8.21489164 5.58846084 -7.90537501 4.30117001 -6.0625 1.5 C-3.625 -0.125 -3.625 -0.125 0 0 Z " fill="#CFCFCF" transform="translate(165.625,255.125)"/>
<path d="M0 0 C2 2 2 2 2.25 5.5 C2 9 2 9 0 11 C-1.875 11.265625 -1.875 11.265625 -4 11.25 C-4.70125 11.25515625 -5.4025 11.2603125 -6.125 11.265625 C-8 11 -8 11 -10 9 C-10.543379 3.02283105 -10.543379 3.02283105 -8.9375 0 C-5.80557344 -1.61647822 -3.32814714 -0.78665296 0 0 Z " fill="#BABABA" transform="translate(203,256)"/>
<path d="M0 0 C2.39614126 -0.05425226 4.79103853 -0.09379027 7.1875 -0.125 C8.19780273 -0.15013672 8.19780273 -0.15013672 9.22851562 -0.17578125 C13.27049078 -0.21521515 16.43475461 0.03161955 20 2 C22 5 22 5 21.875 8.5 C21 12 21 12 19.3125 13.9375 C16.40913094 15.27148038 14.15869424 15.21536552 11 15 C10.67 14.34 10.34 13.68 10 13 C10.825 12.649375 11.65 12.29875 12.5 11.9375 C13.7375 10.9784375 13.7375 10.9784375 15 10 C15.41725678 6.37400578 15.41725678 6.37400578 15 3 C11.71100263 1.35550131 8.14965264 2.04112985 4.53125 2.16015625 C2 2 2 2 0 0 Z " fill="#DFDFDF" transform="translate(274,216)"/>
<path d="M0 0 C0.99 0 1.98 0 3 0 C4.32 3.63 5.64 7.26 7 11 C4.03 11 1.06 11 -2 11 C-2.33 13.31 -2.66 15.62 -3 18 C-4.65 18 -6.3 18 -8 18 C-5.36 12.06 -2.72 6.12 0 0 Z " fill="#DCDCDC" transform="translate(113,224)"/>
<path d="M0 0 C1.65 0 3.3 0 5 0 C7 2 7 2 7.4375 5.4375 C7.2209375 7.2009375 7.2209375 7.2009375 7 9 C5.7934375 9.6496875 5.7934375 9.6496875 4.5625 10.3125 C1.77256125 11.72743394 1.77256125 11.72743394 1.4453125 14.3984375 C1.2106241 16.93733925 1.05260302 19.45114463 1 22 C0.67 22 0.34 22 0 22 C0 14.74 0 7.48 0 0 Z " fill="#262626" transform="translate(144,218)"/>
<path d="M0 0 C2.97 0 5.94 0 9 0 C9 2.97 9 5.94 9 9 C6.03 9 3.06 9 0 9 C0 6.03 0 3.06 0 0 Z " fill="#F1F1F1" transform="translate(140,167)"/>
<path d="M0 0 C2.97 0 5.94 0 9 0 C9 2.97 9 5.94 9 9 C6.03 9 3.06 9 0 9 C0 6.03 0 3.06 0 0 Z " fill="#F1F1F1" transform="translate(140,156)"/>
<path d="M0 0 C2.31 0 4.62 0 7 0 C6.98700099 3.1002637 6.80394218 5.9971961 6 9 C1.59871796 12.5424953 -2.60823206 12.27888455 -8 12 C-8 11.67 -8 11.34 -8 11 C-6.865625 10.690625 -5.73125 10.38125 -4.5625 10.0625 C-1.21224901 9.37075469 -1.21224901 9.37075469 0 8 C0.07148199 6.64756083 0.08399454 5.29165633 0.0625 3.9375 C0.041875 2.638125 0.02125 1.33875 0 0 Z " fill="#F4F4F4" transform="translate(322,230)"/>
<path d="M0 0 C2.97 0.495 2.97 0.495 6 1 C7.34106208 7.46148093 7.34106208 7.46148093 5.8125 9.875 C4 11 4 11 0 12 C0 8.04 0 4.08 0 0 Z " fill="#0A0A0A" transform="translate(283,218)"/>
<path d="M0 0 C0.99 0 1.98 0 3 0 C3 3.3 3 6.6 3 10 C4.32 9.67 5.64 9.34 7 9 C7.26932521 4.34947128 7.26932521 4.34947128 6 0 C7.32 0.33 8.64 0.66 10 1 C11.31690141 7.34507042 11.31690141 7.34507042 10.0625 9.9375 C6.74491303 11.64655995 3.69558797 11.18175023 0 11 C0 7.37 0 3.74 0 0 Z " fill="#DDDDDD" transform="translate(210,256)"/>
<path d="M0 0 C2.64 0 5.28 0 8 0 C8 2.64 8 5.28 8 8 C5.36 8 2.72 8 0 8 C0 5.36 0 2.72 0 0 Z " fill="#FFFFFF" transform="translate(151,168)"/>
<path d="M0 0 C2.64 0 5.28 0 8 0 C8 2.64 8 5.28 8 8 C5.36 8 2.72 8 0 8 C0 5.36 0 2.72 0 0 Z " fill="#FFFFFF" transform="translate(151,156)"/>
<path d="M0 0 C2.5 0.125 2.5 0.125 3.5 1.125 C3.625 4.625 3.625 4.625 3.5 8.125 C2.5 9.125 2.5 9.125 -0.0625 9.1875 C-0.866875 9.166875 -1.67125 9.14625 -2.5 9.125 C-3.86623674 6.39252652 -3.628426 4.14301098 -3.5 1.125 C-2.5 0.125 -2.5 0.125 0 0 Z " fill="#0A0A0A" transform="translate(266.5,256.875)"/>
<path d="M0 0 C2.5 0.125 2.5 0.125 3.5 1.125 C3.625 4.625 3.625 4.625 3.5 8.125 C2.5 9.125 2.5 9.125 -0.0625 9.1875 C-0.866875 9.166875 -1.67125 9.14625 -2.5 9.125 C-3.86623674 6.39252652 -3.628426 4.14301098 -3.5 1.125 C-2.5 0.125 -2.5 0.125 0 0 Z " fill="#0A0A0A" transform="translate(164.5,256.875)"/>
<path d="M0 0 C1.66611905 -0.042721 3.33382885 -0.04063832 5 0 C6 1 6 1 6.0625 4.5625 C6.041875 5.696875 6.02125 6.83125 6 8 C3.625 8.625 3.625 8.625 1 9 C0.34 8.34 -0.32 7.68 -1 7 C-0.625 3.375 -0.625 3.375 0 0 Z " fill="#0B0B0B" transform="translate(196,257)"/>
<path d="M0 0 C2.64 0 5.28 0 8 0 C9.1577506 3.47325181 9.06866652 6.36067448 9 10 C7.35 10.33 5.7 10.66 4 11 C4 7.7 4 4.4 4 1 C2.68 0.67 1.36 0.34 0 0 Z " fill="#191919" transform="translate(209,255)"/>
<path d="M0 0 C2.31 1.98 4.62 3.96 7 6 C7.33 4.02 7.66 2.04 8 0 C8.66 0 9.32 0 10 0 C10 3.3 10 6.6 10 10 C6.76524552 8.38262276 5.29427979 7.52370777 3 5 C2.67 6.98 2.34 8.96 2 11 C1.34 11 0.68 11 0 11 C0 7.37 0 3.74 0 0 Z " fill="#F1F1F1" transform="translate(278,256)"/>
<path d="M0 0 C3.63 0 7.26 0 11 0 C10.67 0.99 10.34 1.98 10 3 C9.01 2.67 8.02 2.34 7 2 C7 5.3 7 8.6 7 12 C6.01 12 5.02 12 4 12 C4 8.7 4 5.4 4 2 C2.68 2 1.36 2 0 2 C0 1.34 0 0.68 0 0 Z " fill="#AFAFAF" transform="translate(238,255)"/>
<path d="M0 0 C2.7425957 2.7425957 3.50207198 3.74411385 4.6875 7.1875 C5.06455078 8.26064453 5.06455078 8.26064453 5.44921875 9.35546875 C5.63097656 9.89816406 5.81273437 10.44085938 6 11 C4.68 11 3.36 11 2 11 C2 10.01 2 9.02 2 8 C0.68 8 -0.64 8 -2 8 C-2 8.99 -2 9.98 -2 11 C-2.99 10.67 -3.98 10.34 -5 10 C-3.35 6.7 -1.7 3.4 0 0 Z " fill="#E1E1E1" transform="translate(229,256)"/>
<path d="M0 0 C2.7425957 2.7425957 3.50207198 3.74411385 4.6875 7.1875 C5.06455078 8.26064453 5.06455078 8.26064453 5.44921875 9.35546875 C5.63097656 9.89816406 5.81273438 10.44085938 6 11 C4.68 11 3.36 11 2 11 C2 10.01 2 9.02 2 8 C0.02463255 8.34786708 0.02463255 8.34786708 -2 9 C-2.33 9.66 -2.66 10.32 -3 11 C-3.66 10.67 -4.32 10.34 -5 10 C-3.35 6.7 -1.7 3.4 0 0 Z " fill="#E6E6E6" transform="translate(119,256)"/>
<path d="M0 0 C-0.33 0.99 -0.66 1.98 -1 3 C-1 2.34 -1 1.68 -1 1 C-2.98 1.33 -4.96 1.66 -7 2 C-7 4.64 -7 7.28 -7 10 C-4.69 9.34 -2.38 8.68 0 8 C-0.33 8.99 -0.66 9.98 -1 11 C-7.32597793 11.35807422 -7.32597793 11.35807422 -10 9.9375 C-11.63378851 6.77203476 -10.85267564 4.34979714 -10 1 C-6.1496895 -1.56687367 -4.41430237 -0.83288724 0 0 Z " fill="#BEBEBE" transform="translate(154,256)"/>
<path d="M0 0 C0 0.99 0 1.98 0 3 C-2.97 2.505 -2.97 2.505 -6 2 C-6 4.31 -6 6.62 -6 9 C-4.02 9.66 -2.04 10.32 0 11 C0.33 10.01 0.66 9.02 1 8 C1.33 8.99 1.66 9.98 2 11 C0.10511048 12.89488952 -2.57139146 12.18019112 -5.08984375 12.23046875 C-7 12 -7 12 -9 10 C-9.55021834 3.94759825 -9.55021834 3.94759825 -7.875 1.0625 C-5.214973 -0.44484863 -2.99793795 -0.19986253 0 0 Z " fill="#BABABA" transform="translate(138,255)"/>
<path d="M0 0 C2.31 0 4.62 0 7 0 C7 2.31 7 4.62 7 7 C4.69 7 2.38 7 0 7 C0 4.69 0 2.38 0 0 Z " fill="#F7F7F7" transform="translate(266,173)"/>
<path d="M0 0 C2.31 0 4.62 0 7 0 C7 2.31 7 4.62 7 7 C4.69 7 2.38 7 0 7 C0 4.69 0 2.38 0 0 Z " fill="#EFEFEF" transform="translate(274,164)"/>
<path d="M0 0 C2.31 0 4.62 0 7 0 C7 2.31 7 4.62 7 7 C4.69 7 2.38 7 0 7 C0 4.69 0 2.38 0 0 Z " fill="#F7F7F7" transform="translate(266,164)"/>
<path d="M0 0 C0.66 0 1.32 0 2 0 C3.38938077 1.96147874 4.7260411 3.96166576 6 6 C6.66 5.67 7.32 5.34 8 5 C7.34 6.98 6.68 8.96 6 11 C5.34 11 4.68 11 4 11 C3.34 9.68 2.68 8.36 2 7 C1.67 8.32 1.34 9.64 1 11 C0.34 11 -0.32 11 -1 11 C-0.67 7.37 -0.34 3.74 0 0 Z " fill="#CACACA" transform="translate(176,256)"/>
<path d="M0 0 C1.98 0 3.96 0 6 0 C6 2.31 6 4.62 6 7 C4.02 7 2.04 7 0 7 C0 4.69 0 2.38 0 0 Z " fill="#FFFFFF" transform="translate(275,173)"/>
<path d="M0 0 C1.91635217 -0.05423638 3.83314925 -0.09289963 5.75 -0.125 C7.35101563 -0.15980469 7.35101563 -0.15980469 8.984375 -0.1953125 C11.92470106 -0.00487687 13.52361878 0.47329896 16 2 C16 3.98 16 5.96 16 8 C15.401875 7.21625 14.80375 6.4325 14.1875 5.625 C10.39543089 1.73371978 5.16271229 1.60578235 0 1 C0 0.67 0 0.34 0 0 Z " fill="#C6C6C6" transform="translate(311,216)"/>
<path d="M0 0 C0.33 0 0.66 0 1 0 C1 4.95 1 9.9 1 15 C-0.65 15 -2.3 15 -4 15 C-2.07289294 4.44191344 -2.07289294 4.44191344 0 0 Z " fill="#D7D7D7" transform="translate(226,227)"/>
<path d="M0 0 C0.66 0.33 1.32 0.66 2 1 C2.73075648 3.3140622 3.40138258 5.64828869 4 8 C1.69 8 -0.62 8 -3 8 C-2.01 5.36 -1.02 2.72 0 0 Z " fill="#1B1B1B" transform="translate(115,225)"/>
<path d="M0 0 C0.33 0 0.66 0 1 0 C1.66 3.63 2.32 7.26 3 11 C1.68 11 0.36 11 -1 11 C-2.25 3.375 -2.25 3.375 0 0 Z " fill="#E1E1E1" transform="translate(186,256)"/>
<path d="M0 0 C0.66 0.66 1.32 1.32 2 2 C-4.435 2.495 -4.435 2.495 -11 3 C-4.75182482 -1.68613139 -4.75182482 -1.68613139 0 0 Z " fill="#BDBDBD" transform="translate(65,195)"/>
<path d="M0 0 C2 3 2 3 2 7 C1.01 7.33 0.02 7.66 -1 8 C-1.33 8.66 -1.66 9.32 -2 10 C-2.66 9.67 -3.32 9.34 -4 9 C-2.68 6.03 -1.36 3.06 0 0 Z " fill="#999999" transform="translate(118,257)"/>
<path d="M0 0 C1.09658936 3.28976808 0.79953138 4.71303767 0 8 C-1.65 8 -3.3 8 -5 8 C-2.25 1.125 -2.25 1.125 0 0 Z " fill="#E8E8E8" transform="translate(110,234)"/>
<path d="M0 0 C0.99 0 1.98 0 3 0 C3.33 1.32 3.66 2.64 4 4 C2.68 4 1.36 4 0 4 C0 4.99 0 5.98 0 7 C-0.99 6.67 -1.98 6.34 -3 6 C-2.01 4.02 -1.02 2.04 0 0 Z " fill="#939393" transform="translate(227,260)"/>
<path d="M0 0 C0.66 0.33 1.32 0.66 2 1 C1.835 2.11375 1.67 3.2275 1.5 4.375 C0.9544542 7.72032033 0.9544542 7.72032033 1 10 C0.01 9.67 -0.98 9.34 -2 9 C-2.125 5.625 -2.125 5.625 -2 2 C-1.34 1.34 -0.68 0.68 0 0 Z " fill="#EFEFEF" transform="translate(195,256)"/>
<path d="M0 0 C1.32 0 2.64 0 4 0 C4 1.65 4 3.3 4 5 C3.34 4.34 2.68 3.68 2 3 C1.34 3.66 0.68 4.32 0 5 C-0.66 5 -1.32 5 -2 5 C-1.34 3.35 -0.68 1.7 0 0 Z " fill="#C1C1C1" transform="translate(242,227)"/>
<path d="M0 0 C0.33 0 0.66 0 1 0 C1.33 2.31 1.66 4.62 2 7 C0.35 7 -1.3 7 -3 7 C-2.01 4.69 -1.02 2.38 0 0 Z " fill="#F5F5F5" transform="translate(225,235)"/>
</svg>
